# xmcd
#
# Track frame offsets:
#	183
#	18333
#	34645
#	47658
#	63883
#	77703
#	90033
#	105333
#	118533
#	132108
#	150443
#	165683
#	179733
#	193083
#
# Disc length: 2764 seconds
#
# Revision: 1
# Processed by: cddbd v1.5.2PL0 Copyright (c) Steve Scherf et al.
# Submitted via: audiograbber 1.83.01
#
DISCID=a00aca0e
DTITLE=та паидиа апо тгм патяа [1995] - выяис амхяайийо
DYEAR=1995
DGENRE=
TTITLE0=то тяацоуди тоу дглгтяг [дглгтягс папаливагк]
TTITLE1=лпояеи йаи ма выяисале
TTITLE2=бцес
TTITLE3=ажоу ацапы ха леимы
TTITLE4=ейкеье г мувта та жтеяа лоу
TTITLE5=еяыта йаме лиа стасг
TTITLE6=о помос
TTITLE7=о йослос йойа-йока
TTITLE8=циати де л' ацапас
TTITLE9=пыс ма се кгсломгсы
TTITLE10=ока амапода
TTITLE11=етси ха с' ацапы
TTITLE12=пкатеиа окцас
TTITLE13=патеяа йатсе жяомила
EXTD=
EXTT0=
EXTT1=
EXTT2=
EXTT3=
EXTT4=
EXTT5=
EXTT6=
EXTT7=
EXTT8=
EXTT9=
EXTT10=
EXTT11=
EXTT12=
EXTT13=
PLAYORDER=
